<svg version="1.1" viewBox="0.0 0.0 960.0 720.0" fill="none" stroke="none" stroke-linecap="square" stroke-miterlimit="10" xmlns:xlink="http://www.w3.org/1999/xlink" xmlns="http://www.w3.org/2000/svg"><clipPath id="p.0"><path d="m0 0l960.0 0l0 720.0l-960.0 0l0 -720.0z" clip-rule="nonzero"/></clipPath><g clip-path="url(#p.0)"><path fill="#000000" fill-opacity="0.0" d="m0 0l960.0 0l0 720.0l-960.0 0z" fill-rule="evenodd"/><path fill="#000000" fill-opacity="0.0" d="m480.0 192.11024c-4.7331543 -1.670166 -18.375763 -9.743225 -28.398956 -10.020996c-10.023193 -0.27778625 -21.71698 3.8993835 -31.740143 8.354324c-10.023193 4.454941 -20.324585 11.693344 -28.398956 18.375336c-8.074371 6.6819763 -13.643494 12.807083 -20.047241 21.716522c-6.403778 8.909454 -11.971558 18.09755 -18.375336 31.740173c-6.4037476 13.642609 -13.921692 32.852997 -20.047241 50.11548c-6.1255493 17.262451 -13.086609 38.9812 -16.706024 53.45932c-3.6194458 14.478119 -5.010498 19.766846 -5.010498 33.409454c0 13.642609 1.947937 33.96805 5.010498 48.446198c3.0625305 14.478119 7.7961426 26.450562 13.364807 38.422546c5.568695 11.972015 13.086609 21.716095 20.047241 33.409485c6.9606323 11.693298 13.642181 27.841187 21.716553 36.75061c8.074371 8.909485 17.541565 10.023621 26.729645 16.706055c9.18811 6.682434 19.211304 18.655273 28.398956 23.388428c9.187653 4.7332153 17.817596 6.1242676 26.72705 5.010498c8.909424 -1.1137085 22.274689 -9.74408 26.729645 -11.692871" fill-rule="evenodd"/><path stroke="#000000" stroke-width="12.0" stroke-linejoin="round" stroke-linecap="butt" d="m480.0 192.11024c-4.7331543 -1.670166 -18.375763 -9.743225 -28.398956 -10.020996c-10.023193 -0.27778625 -21.71698 3.8993835 -31.740143 8.354324c-10.023193 4.454941 -20.324585 11.693344 -28.398956 18.375336c-8.074371 6.6819763 -13.643494 12.807083 -20.047241 21.716522c-6.403778 8.909454 -11.971558 18.09755 -18.375336 31.740173c-6.4037476 13.642609 -13.921692 32.852997 -20.047241 50.11548c-6.1255493 17.262451 -13.086609 38.9812 -16.706024 53.45932c-3.6194458 14.478119 -5.010498 19.766846 -5.010498 33.409454c0 13.642609 1.947937 33.96805 5.010498 48.446198c3.0625305 14.478119 7.7961426 26.450562 13.364807 38.422546c5.568695 11.972015 13.086609 21.716095 20.047241 33.409485c6.9606323 11.693298 13.642181 27.841187 21.716553 36.75061c8.074371 8.909485 17.541565 10.023621 26.729645 16.706055c9.18811 6.682434 19.211304 18.655273 28.398956 23.388428c9.187653 4.7332153 17.817596 6.1242676 26.72705 5.010498c8.909424 -1.1137085 22.274689 -9.74408 26.729645 -11.692871" fill-rule="evenodd"/><path fill="#000000" fill-opacity="0.0" d="m481.66928 190.44095c4.454956 -1.3919525 16.98471 -8.352142 26.729675 -8.351715c9.744965 4.4250488E-4 21.71695 3.8993988 31.740143 8.35434c10.023193 4.454941 20.324585 11.693344 28.398987 18.37532c8.074341 6.6819763 13.643433 12.807098 20.047241 21.716537c6.4037476 8.909454 11.971558 18.09755 18.375305 31.740173c6.4037476 13.642609 13.921692 32.852997 20.047241 50.11548c6.1255493 17.262451 13.086609 38.98117 16.706055 53.45932c3.6193848 14.478119 5.010498 19.766846 5.010498 33.409454c0 13.642578 -1.947937 33.96805 -5.010498 48.446167c-3.062561 14.478149 -7.7961426 26.450592 -13.364868 38.422577c-5.5686646 11.972015 -13.086609 21.716095 -20.047241 33.409485c-6.9606323 11.693298 -13.642151 27.841187 -21.716492 36.75061c-8.074402 8.909485 -17.541565 10.023621 -26.729675 16.706055c-9.18811 6.682434 -19.211304 18.655273 -28.398987 23.388428c-9.187622 4.7331543 -17.817566 6.1242676 -26.72702 5.010498c-8.909424 -1.1137085 -22.274689 -9.74408 -26.729645 -11.692871" fill-rule="evenodd"/><path stroke="#000000" stroke-width="12.0" stroke-linejoin="round" stroke-linecap="butt" d="m481.66928 190.44095c4.454956 -1.3919525 16.98471 -8.352142 26.729675 -8.351715c9.744965 4.4250488E-4 21.71695 3.8993988 31.740143 8.35434c10.023193 4.454941 20.324585 11.693344 28.398987 18.37532c8.074341 6.6819763 13.643433 12.807098 20.047241 21.716537c6.4037476 8.909454 11.971558 18.09755 18.375305 31.740173c6.4037476 13.642609 13.921692 32.852997 20.047241 50.11548c6.1255493 17.262451 13.086609 38.98117 16.706055 53.45932c3.6193848 14.478119 5.010498 19.766846 5.010498 33.409454c0 13.642578 -1.947937 33.96805 -5.010498 48.446167c-3.062561 14.478149 -7.7961426 26.450592 -13.364868 38.422577c-5.5686646 11.972015 -13.086609 21.716095 -20.047241 33.409485c-6.9606323 11.693298 -13.642151 27.841187 -21.716492 36.75061c-8.074402 8.909485 -17.541565 10.023621 -26.729675 16.706055c-9.18811 6.682434 -19.211304 18.655273 -28.398987 23.388428c-9.187622 4.7331543 -17.817566 6.1242676 -26.72702 5.010498c-8.909424 -1.1137085 -22.274689 -9.74408 -26.729645 -11.692871" fill-rule="evenodd"/><path fill="#000000" fill-opacity="0.0" d="m478.3281 183.75853l3.338562 409.29132" fill-rule="evenodd"/><path stroke="#000000" stroke-width="12.0" stroke-linejoin="round" stroke-linecap="butt" d="m478.3281 183.75853l3.338562 409.29132" fill-rule="evenodd"/><path fill="#000000" fill-opacity="0.0" d="m343.01575 289.00262c4.3276367 2.5122375 17.481201 12.075684 25.965881 15.073486c8.48468 2.9978027 16.101044 3.2611694 24.94226 2.913391c8.841217 -0.34777832 19.516632 -6.020569 28.10498 -5.0c8.588379 1.0205688 19.083557 5.5078735 23.425201 11.123352c4.3416443 5.6154785 2.1872253 18.807983 2.6246643 22.56955" fill-rule="evenodd"/><path stroke="#000000" stroke-width="12.0" stroke-linejoin="round" stroke-linecap="butt" d="m343.01575 289.00262c4.3276367 2.5122375 17.481201 12.075684 25.965881 15.073486c8.48468 2.9978027 16.101044 3.2611694 24.94226 2.913391c8.841217 -0.34777832 19.516632 -6.020569 28.10498 -5.0c8.588379 1.0205688 19.083557 5.5078735 23.425201 11.123352c4.3416443 5.6154785 2.1872253 18.807983 2.6246643 22.56955" fill-rule="evenodd"/><path fill="#000000" fill-opacity="0.0" d="m478.32864 275.6378c-7.7957153 -4.1762695 -42.597992 -18.932617 -46.774292 -25.05774c-4.1763 -6.125107 17.540253 -6.6810913 21.716522 -11.692902c4.1763 -5.0118103 2.7843628 -15.314972 3.341217 -18.37796" fill-rule="evenodd"/><path stroke="#000000" stroke-width="12.0" stroke-linejoin="round" stroke-linecap="butt" d="m478.32864 275.6378c-7.7957153 -4.1762695 -42.597992 -18.932617 -46.774292 -25.05774c-4.1763 -6.125107 17.540253 -6.6810913 21.716522 -11.692902c4.1763 -5.0118103 2.7843628 -15.314972 3.341217 -18.37796" fill-rule="evenodd"/><path fill="#000000" fill-opacity="0.0" d="m481.6672 275.6378c7.7957153 -4.1762695 42.597992 -18.932617 46.77426 -25.05774c4.1763306 -6.125107 -17.540222 -6.6810913 -21.716522 -11.692902c-4.1762695 -5.0118103 -2.7843323 -15.314972 -3.3411865 -18.37796" fill-rule="evenodd"/><path stroke="#000000" stroke-width="12.0" stroke-linejoin="round" stroke-linecap="butt" d="m481.6672 275.6378c7.7957153 -4.1762695 42.597992 -18.932617 46.77426 -25.05774c4.1763306 -6.125107 -17.540222 -6.6810913 -21.716522 -11.692902c-4.1762695 -5.0118103 -2.7843323 -15.314972 -3.3411865 -18.37796" fill-rule="evenodd"/><path fill="#000000" fill-opacity="0.0" d="m524.5486 334.1076c5.045471 1.948822 26.619812 6.681549 30.27295 11.692932c3.6530762 5.0113525 -6.961975 15.312775 -8.35437 18.375305" fill-rule="evenodd"/><path stroke="#000000" stroke-width="12.0" stroke-linejoin="round" stroke-linecap="butt" d="m524.5486 334.1076c5.045471 1.948822 26.619812 6.681549 30.27295 11.692932c3.6530762 5.0113525 -6.961975 15.312775 -8.35437 18.375305" fill-rule="evenodd"/><path fill="#000000" fill-opacity="0.0" d="m556.4908 349.14334c5.846924 -0.776886 26.450134 -6.947052 35.08142 -4.6614075c8.631226 2.2856445 14.757202 11.751526 16.705994 18.375336c1.9488525 6.6237793 -0.0012817383 15.022308 -5.0131226 21.367432c-5.01178 6.345154 -20.881409 13.919525 -25.05774 16.70343" fill-rule="evenodd"/><path stroke="#000000" stroke-width="12.0" stroke-linejoin="round" stroke-linecap="butt" d="m556.4908 349.14334c5.846924 -0.776886 26.450134 -6.947052 35.08142 -4.6614075c8.631226 2.2856445 14.757202 11.751526 16.705994 18.375336c1.9488525 6.6237793 -0.0012817383 15.022308 -5.0131226 21.367432c-5.01178 6.345154 -20.881409 13.919525 -25.05774 16.70343" fill-rule="evenodd"/><path fill="#000000" fill-opacity="0.0" d="m603.2651 385.8924c3.3412476 2.7843323 16.14917 7.7375183 20.047241 16.706024c3.8980713 8.968506 7.517517 28.136932 3.3412476 37.10498c-4.1763306 8.968079 -23.665833 13.919525 -28.398987 16.70343" fill-rule="evenodd"/><path stroke="#000000" stroke-width="12.0" stroke-linejoin="round" stroke-linecap="butt" d="m603.2651 385.8924c3.3412476 2.7843323 16.14917 7.7375183 20.047241 16.706024c3.8980713 8.968506 7.517517 28.136932 3.3412476 37.10498c-4.1763306 8.968079 -23.665833 13.919525 -28.398987 16.70343" fill-rule="evenodd"/><path fill="#000000" fill-opacity="0.0" d="m481.66928 415.60892c6.682434 -1.3919373 27.008759 -2.5047913 40.094513 -8.351685c13.085754 -5.846924 32.0166 -22.27472 38.41992 -26.729675" fill-rule="evenodd"/><path stroke="#000000" stroke-width="12.0" stroke-linejoin="round" stroke-linecap="butt" d="m481.66928 415.60892c6.682434 -1.3919373 27.008759 -2.5047913 40.094513 -8.351685c13.085754 -5.846924 32.0166 -22.27472 38.41992 -26.729675" fill-rule="evenodd"/><path fill="#000000" fill-opacity="0.0" d="m510.06824 412.26773c3.3411865 4.7331543 11.9729 22.771637 20.047241 28.398926c8.074402 5.6273193 18.097534 6.698181 28.398987 5.3648376c10.301392 -1.3333435 27.841187 -11.13736 33.409424 -13.364838" fill-rule="evenodd"/><path stroke="#000000" stroke-width="12.0" stroke-linejoin="round" stroke-linecap="butt" d="m510.06824 412.26773c3.3411865 4.7331543 11.9729 22.771637 20.047241 28.398926c8.074402 5.6273193 18.097534 6.698181 28.398987 5.3648376c10.301392 -1.3333435 27.841187 -11.13736 33.409424 -13.364838" fill-rule="evenodd"/><path fill="#000000" fill-opacity="0.0" d="m480.3517 466.43045c4.4549255 6.4037476 18.377075 32.0188 26.729645 38.422577c8.3526 6.4037476 19.766418 -4.1763 23.385803 0c3.6194458 4.1762695 -4.4536133 18.653992 -1.6692505 25.05774c2.7843018 6.4037476 16.983337 7.7961426 18.375305 13.364807c1.3919678 5.5687256 -4.176697 17.541565 -10.023621 20.047241c-5.846863 2.5056763 -20.046387 -1.1150513 -25.05774 -5.0131226c-5.011383 -3.8980713 -4.175415 -15.312744 -5.010498 -18.375305" fill-rule="evenodd"/><path stroke="#000000" stroke-width="12.0" stroke-linejoin="round" stroke-linecap="butt" d="m480.3517 466.43045c4.4549255 6.4037476 18.377075 32.0188 26.729645 38.422577c8.3526 6.4037476 19.766418 -4.1763 23.385803 0c3.6194458 4.1762695 -4.4536133 18.653992 -1.6692505 25.05774c2.7843018 6.4037476 16.983337 7.7961426 18.375305 13.364807c1.3919678 5.5687256 -4.176697 17.541565 -10.023621 20.047241c-5.846863 2.5056763 -20.046387 -1.1150513 -25.05774 -5.0131226c-5.011383 -3.8980713 -4.175415 -15.312744 -5.010498 -18.375305" fill-rule="evenodd"/><path fill="#000000" fill-opacity="0.0" d="m570.20734 509.5116c2.7843628 0.83551025 11.9729 6.683716 16.706055 5.0131226c4.7331543 -1.6705933 6.959778 -14.479889 11.692932 -15.036743c4.7331543 -0.55688477 13.921692 9.746277 16.705994 11.695526" fill-rule="evenodd"/><path stroke="#000000" stroke-width="12.0" stroke-linejoin="round" stroke-linecap="butt" d="m570.20734 509.5116c2.7843628 0.83551025 11.9729 6.683716 16.706055 5.0131226c4.7331543 -1.6705933 6.959778 -14.479889 11.692932 -15.036743c4.7331543 -0.55688477 13.921692 9.746277 16.705994 11.695526" fill-rule="evenodd"/><path fill="#000000" fill-opacity="0.0" d="m611.4136 280.6509c-5.128601 1.0074463 -21.549011 4.1671143 -30.771667 6.0446167c-9.222656 1.877533 -15.72876 4.7445374 -24.56427 5.2204895c-8.83551 0.47592163 -19.992126 -4.1798096 -28.448853 -2.3648376c-8.456665 1.8149719 -18.490356 7.2593994 -22.29132 13.254608c-3.8009644 5.995178 -0.42871094 18.93042 -0.5144348 22.716522" fill-rule="evenodd"/><path stroke="#000000" stroke-width="12.0" stroke-linejoin="round" stroke-linecap="butt" d="m611.4136 280.6509c-5.128601 1.0074463 -21.549011 4.1671143 -30.771667 6.0446167c-9.222656 1.877533 -15.72876 4.7445374 -24.56427 5.2204895c-8.83551 0.47592163 -19.992126 -4.1798096 -28.448853 -2.3648376c-8.456665 1.8149719 -18.490356 7.2593994 -22.29132 13.254608c-3.8009644 5.995178 -0.42871094 18.93042 -0.5144348 22.716522" fill-rule="evenodd"/><path fill="#000000" fill-opacity="0.0" d="m315.72964 445.67978c10.243225 -0.9527588 51.216125 -0.86569214 61.45932 -5.716522c10.243225 -4.85083 2.227478 -16.98468 0 -23.388458c-2.2274475 -6.4037476 -11.13736 -12.528442 -13.364807 -15.034119" fill-rule="evenodd"/><path stroke="#000000" stroke-width="12.0" stroke-linejoin="round" stroke-linecap="butt" d="m315.72964 445.67978c10.243225 -0.9527588 51.216125 -0.86569214 61.45932 -5.716522c10.243225 -4.85083 2.227478 -16.98468 0 -23.388458c-2.2274475 -6.4037476 -11.13736 -12.528442 -13.364807 -15.034119" fill-rule="evenodd"/><path fill="#000000" fill-opacity="0.0" d="m422.29114 490.07874c-1.1137085 -5.011383 -12.588348 -24.617218 -6.6824036 -30.068237c5.905945 -5.4510193 43.78827 -0.9671936 42.118103 -2.6377869c-1.670166 -1.6706238 -39.551178 -3.370514 -52.1391 -7.3858337c-12.587921 -4.01532 -20.882324 -6.9610596 -23.388458 -16.706024c-2.5061035 -9.744995 6.959778 -34.80316 8.351715 -41.763794" fill-rule="evenodd"/><path stroke="#000000" stroke-width="12.0" stroke-linejoin="round" stroke-linecap="butt" d="m422.29114 490.07874c-1.1137085 -5.011383 -12.588348 -24.617218 -6.6824036 -30.068237c5.905945 -5.4510193 43.78827 -0.9671936 42.118103 -2.6377869c-1.670166 -1.6706238 -39.551178 -3.370514 -52.1391 -7.3858337c-12.587921 -4.01532 -20.882324 -6.9610596 -23.388458 -16.706024c-2.5061035 -9.744995 6.959778 -34.80316 8.351715 -41.763794" fill-rule="evenodd"/><path fill="#000000" fill-opacity="0.0" d="m324.08398 344.48294c6.066498 1.8311462 32.838165 4.979004 36.398956 10.986877c3.560791 6.0078735 -15.034119 24.781708 -15.034119 25.060364c0 0.278656 5.56781 -19.490387 15.034119 -23.388458c9.466309 -3.8980713 32.85434 -5.8468933 41.763763 0c8.909454 5.8468933 10.579193 35.916443 11.692932 35.08136c1.113739 -0.835083 -7.237976 -31.739258 -5.010498 -40.091858c2.227478 -8.35257 15.312775 -8.352997 18.375336 -10.023621" fill-rule="evenodd"/><path stroke="#000000" stroke-width="12.0" stroke-linejoin="round" stroke-linecap="butt" d="m324.08398 344.48294c6.066498 1.8311462 32.838165 4.979004 36.398956 10.986877c3.560791 6.0078735 -15.034119 24.781708 -15.034119 25.060364c0 0.278656 5.56781 -19.490387 15.034119 -23.388458c9.466309 -3.8980713 32.85434 -5.8468933 41.763763 0c8.909454 5.8468933 10.579193 35.916443 11.692932 35.08136c1.113739 -0.835083 -7.237976 -31.739258 -5.010498 -40.091858c2.227478 -8.35257 15.312775 -8.352997 18.375336 -10.023621" fill-rule="evenodd"/><path fill="#000000" fill-opacity="0.0" d="m478.32547 417.7139c-3.6194458 -1.3923645 -15.034119 -8.354309 -21.716553 -8.354309c-6.6824036 0 -15.314941 6.9619446 -18.37796 8.354309" fill-rule="evenodd"/><path stroke="#000000" stroke-width="12.0" stroke-linejoin="round" stroke-linecap="butt" d="m478.32547 417.7139c-3.6194458 -1.3923645 -15.034119 -8.354309 -21.716553 -8.354309c-6.6824036 0 -15.314941 6.9619446 -18.37796 8.354309" fill-rule="evenodd"/><path fill="#000000" fill-opacity="0.0" d="m407.60892 504.5013c-2.2270203 5.011383 -3.895874 27.56253 -13.362213 30.068268c-9.466309 2.5056763 -36.19641 -12.528442 -43.43567 -15.034119" fill-rule="evenodd"/><path stroke="#000000" stroke-width="12.0" stroke-linejoin="round" stroke-linecap="butt" d="m407.60892 504.5013c-2.2270203 5.011383 -3.895874 27.56253 -13.362213 30.068268c-9.466309 2.5056763 -36.19641 -12.528442 -43.43567 -15.034119" fill-rule="evenodd"/><path fill="#000000" fill-opacity="0.0" d="m400.92914 534.5696c2.783905 2.227417 13.919495 11.137329 16.7034 13.364807" fill-rule="evenodd"/><path stroke="#000000" stroke-width="12.0" stroke-linejoin="round" stroke-linecap="butt" d="m400.92914 534.5696c2.783905 2.227417 13.919495 11.137329 16.7034 13.364807" fill-rule="evenodd"/><path fill="#000000" fill-opacity="0.0" d="m482.7848 562.9715c-3.341217 -2.5056763 -12.807953 -14.75592 -20.047241 -15.034119c-7.2392883 -0.27819824 -20.882782 7.239258 -23.388458 13.364807c-2.5056763 6.1255493 6.9619446 19.490417 8.35434 23.388489" fill-rule="evenodd"/><path stroke="#000000" stroke-width="12.0" stroke-linejoin="round" stroke-linecap="butt" d="m482.7848 562.9715c-3.341217 -2.5056763 -12.807953 -14.75592 -20.047241 -15.034119c-7.2392883 -0.27819824 -20.882782 7.239258 -23.388458 13.364807c-2.5056763 6.1255493 6.9619446 19.490417 8.35434 23.388489" fill-rule="evenodd"/><path fill="#000000" fill-opacity="0.0" d="m382.55118 482.7848c-5.2900085 -0.278656 -26.450134 -1.39328 -31.740143 -1.671936" fill-rule="evenodd"/><path stroke="#000000" stroke-width="12.0" stroke-linejoin="round" stroke-linecap="butt" d="m382.55118 482.7848c-5.2900085 -0.278656 -26.450134 -1.39328 -31.740143 -1.671936" fill-rule="evenodd"/><path fill="#000000" fill-opacity="0.0" d="m384.22308 250.58005c2.1579285 1.3919525 9.118988 2.2266083 12.94751 8.351715c3.8285217 6.1250916 6.682434 20.324585 10.023621 28.398956c3.341217 8.074341 8.353027 16.706024 10.023621 20.047241" fill-rule="evenodd"/><path stroke="#000000" stroke-width="12.0" stroke-linejoin="round" stroke-linecap="butt" d="m384.22308 250.58005c2.1579285 1.3919525 9.118988 2.2266083 12.94751 8.351715c3.8285217 6.1250916 6.682434 20.324585 10.023621 28.398956c3.341217 8.074341 8.353027 16.706024 10.023621 20.047241" fill-rule="evenodd"/></g></svg>